<svg width="23" height="23" viewBox="0 0 23 23" fill="none" xmlns="http://www.w3.org/2000/svg">
<g clip-path="url(#clip0_60_423)">
<path d="M2.15625 6C0.96582 6 0 6.96582 0 8.15625C0 8.83457 0.318945 9.47246 0.8625 9.88125L10.6375 17.2125C11.1496 17.5943 11.8504 17.5943 12.3625 17.2125L22.1375 9.88125C22.6811 9.47246 23 8.83457 23 8.15625C23 6.96582 22.0342 6 20.8438 6H2.15625ZM0 11.0312V20.375C0 21.9607 1.28926 23.25 2.875 23.25H20.125C21.7107 23.25 23 21.9607 23 20.375V11.0312L13.225 18.3625C12.2008 19.1307 10.7992 19.1307 9.775 18.3625L0 11.0312Z" fill="#F9F54B"/>
</g>
<defs>
<clipPath id="clip0_60_423">
<rect width="23" height="23" fill="white"/>
</clipPath>
</defs>
</svg>
