<svg width="21" height="21" viewBox="0 0 21 21" fill="none" xmlns="http://www.w3.org/2000/svg">
<g clip-path="url(#clip0_60_403)">
<path d="M1.76971 0.593597C1.14646 0.593597 0.644714 1.09534 0.644714 1.71859V19.2475C0.644714 19.8708 1.14646 20.3725 1.76971 20.3725H10.5941H19.2987C19.9219 20.3725 20.4237 19.8708 20.4237 19.2475V1.71859C20.4237 1.09534 19.9219 0.593597 19.2987 0.593597H10.5941H1.76971Z" fill="#00247D"/>
<path d="M0.644714 3.91248V5.63423L9.04312 10.4831L0.644714 15.3319V17.0536L10.5342 11.3439L20.4237 17.0536V15.3319L12.0253 10.4831L20.4237 5.63423V3.91248L10.5342 9.62221L0.644714 3.91248Z" fill="#CF142B"/>
<path d="M8.83336 0.593597V8.78224H0.644714V12.1838H8.83336V20.3725H10.5941H12.235V12.1838H20.4237V8.78224H12.235V0.593597H10.5941H8.83336Z" fill="#CF142B"/>
<path d="M8.50263 0.593597V8.06741L0.644714 3.53058V4.29441L7.84505 8.45152H6.18593L0.644714 5.25228V6.01616L4.86291 8.45152H0.644714V9.11297H6.00863H7.33159H8.01946C8.46974 9.11297 8.74556 9.09419 9.16409 9.09419V8.44929V0.593597H8.50263ZM11.9043 0.593597V8.44929V9.11579C12.3079 9.11579 12.6844 9.11297 13.0489 9.11297H13.7368H15.0598H20.4237V8.45152H16.2055L20.4237 6.01616V5.25228L14.8825 8.45152H13.2233L20.4237 4.29441V3.53058L12.5657 8.06741V0.593597H11.9043ZM9.16409 11.8611C8.78277 11.8611 8.38395 11.8531 8.01935 11.8531H7.33154H6.00852H0.644714V12.5146H4.86285L0.644714 14.9499V15.7138L6.18587 12.5146H7.84505L0.644714 16.6717V17.4355L8.50263 12.8987V20.3725H9.16409V12.5168V11.8611ZM11.9043 11.8611V12.5168V20.3725H12.5657V12.8987L20.4237 17.4355V16.6717L13.2233 12.5146H14.8825L20.4237 15.7138V14.9499L16.2055 12.5146H20.4237V11.8531H15.0599H13.7368H13.049C12.6308 11.8531 11.9043 11.8611 11.9043 11.8611Z" fill="white"/>
</g>
<defs>
<clipPath id="clip0_60_403">
<rect width="21" height="21" fill="white"/>
</clipPath>
</defs>
</svg>
