<svg width="16" height="22" viewBox="0 0 16 22" fill="none" xmlns="http://www.w3.org/2000/svg">
<g clip-path="url(#clip0_60_415)">
<path d="M8.84707 20.7898C10.9512 18.1566 15.75 11.7746 15.75 8.18982C15.75 3.84216 12.2227 0.314819 7.875 0.314819C3.52734 0.314819 0 3.84216 0 8.18982C0 11.7746 4.79883 18.1566 6.90293 20.7898C7.40742 21.4174 8.34258 21.4174 8.84707 20.7898ZM7.875 10.8148C6.42715 10.8148 5.25 9.63767 5.25 8.18982C5.25 6.74197 6.42715 5.56482 7.875 5.56482C9.32285 5.56482 10.5 6.74197 10.5 8.18982C10.5 9.63767 9.32285 10.8148 7.875 10.8148Z" fill="#F9F54B"/>
</g>
<defs>
<clipPath id="clip0_60_415">
<rect width="15.75" height="21" fill="white" transform="translate(0 0.314819)"/>
</clipPath>
</defs>
</svg>
