<svg width="20" height="20" viewBox="0 0 20 20" fill="none" xmlns="http://www.w3.org/2000/svg">
<g clip-path="url(#clip0_60_419)">
<path d="M6.44141 0.960628C6.14062 0.234066 5.34766 -0.152653 4.58984 0.0543781L1.15234 0.991878C0.472656 1.17938 0 1.79657 0 2.49969C0 12.1638 7.83594 19.9997 17.5 19.9997C18.2031 19.9997 18.8203 19.527 19.0078 18.8473L19.9453 15.4098C20.1523 14.652 19.7656 13.8591 19.0391 13.5583L15.2891 11.9958C14.6523 11.7302 13.9141 11.9138 13.4805 12.4489L11.9023 14.3747C9.15234 13.0739 6.92578 10.8473 5.625 8.09735L7.55078 6.52313C8.08594 6.08563 8.26953 5.35125 8.00391 4.71453L6.44141 0.964535V0.960628Z" fill="#F9F54B"/>
</g>
<defs>
<clipPath id="clip0_60_419">
<rect width="20" height="20" fill="white"/>
</clipPath>
</defs>
</svg>
