<svg width="23" height="18" viewBox="0 0 23 18" fill="none" xmlns="http://www.w3.org/2000/svg">
<g clip-path="url(#clip0_68_75)">
<path d="M6.46875 1.6875H11.5312C11.6859 1.6875 11.8125 1.81406 11.8125 1.96875V3.375H6.1875V1.96875C6.1875 1.81406 6.31406 1.6875 6.46875 1.6875ZM4.5 1.96875V3.375H2.25C1.00898 3.375 0 4.38398 0 5.625V9H6.75H12.375H12.6633C13.7988 7.62539 15.5145 6.75 17.4375 6.75C17.6273 6.75 17.8137 6.75703 18 6.77461V5.625C18 4.38398 16.991 3.375 15.75 3.375H13.5V1.96875C13.5 0.882422 12.6176 0 11.5312 0H6.46875C5.38242 0 4.5 0.882422 4.5 1.96875ZM11.25 12.375H7.875C7.25273 12.375 6.75 11.8723 6.75 11.25V10.125H0V14.625C0 15.866 1.00898 16.875 2.25 16.875H12.6633C11.7809 15.8062 11.25 14.4316 11.25 12.9375C11.25 12.7477 11.257 12.5613 11.2746 12.375H11.25ZM22.5 12.9375C22.5 10.1426 20.2324 7.875 17.4375 7.875C14.6426 7.875 12.375 10.1426 12.375 12.9375C12.375 15.7324 14.6426 18 17.4375 18C20.2324 18 22.5 15.7324 22.5 12.9375ZM17.4375 10.125C17.7469 10.125 18 10.3781 18 10.6875V12.375H19.125C19.4344 12.375 19.6875 12.6281 19.6875 12.9375C19.6875 13.2469 19.4344 13.5 19.125 13.5H17.4375C17.1281 13.5 16.875 13.2469 16.875 12.9375V10.6875C16.875 10.3781 17.1281 10.125 17.4375 10.125Z" fill="#F9F54B"/>
</g>
<defs>
<clipPath id="clip0_68_75">
<rect width="22.5" height="18" fill="white"/>
</clipPath>
</defs>
</svg>
